<?xml version="1.0" ?><svg style="enable-background:new 0 0 32 32;" version="1.1" viewBox="0 0 32 32" xml:space="preserve" xmlns="http://www.w3.org/2000/svg" xmlns:xlink="http://www.w3.org/1999/xlink"><style type="text/css">
	.st0{fill:#000000;}
	.st1{fill:none;stroke:#000000;stroke-width:1.8761;stroke-linejoin:round;stroke-miterlimit:10;}
	.st2{fill:#171715;}
	.st3{fill-rule:evenodd;clip-rule:evenodd;fill:#000000;}
</style><g id="Layer_1"/><g id="icons"><g id="whatsapp"><path class="st0" d="M20.7,11.7c-2.2-2.4-6-2.4-8.3-0.2c-2,2-2.2,5-0.7,7.2L11.6,19l-0.5,1v0l-0.8,1.6l1.7-0.7l0,0l1.1-0.4    l0.3-0.1c2.2,1.4,5.3,1.2,7.2-0.8C22.7,17.5,22.8,13.9,20.7,11.7z M19.8,17.7c0,0.1-0.1,0.1-0.1,0.2c-0.1,0.1-0.2,0.3-0.4,0.4    c-0.1,0.1-0.3,0.1-0.4,0.2h-0.1c-1,0-1.9-0.3-2.8-0.9c-0.8-0.5-1.3-1.2-1.7-2.1c-0.2-0.5-0.4-1.1-0.5-1.6c0-0.2,0-0.4,0-0.6    c0-0.1,0-0.3,0.1-0.4c0.1-0.1,0.3-0.2,0.4-0.4c0.3-0.3,0.8-0.3,1.1,0c0.1,0.1,0.2,0.3,0.3,0.4c0.1,0.3,0.1,0.5,0.2,0.8    c0,0.3,0,0.5-0.2,0.7c-0.1,0.1-0.2,0.2-0.2,0.2c0,0,0,0,0,0.1c0.3,1.1,1,1.8,2.1,2.1c0,0,0.1,0,0.1,0c0.1-0.1,0.1-0.1,0.2-0.2    c0.2-0.2,0.5-0.3,0.8-0.2c0.2,0.1,0.5,0.1,0.7,0.2C19.7,16.7,20,17.3,19.8,17.7z"/><path class="st0" d="M16,2C8.3,2,2,8.3,2,16c0,7.7,6.3,14,14,14s14-6.3,14-14C30,8.3,23.7,2,16,2z M21.7,20.3    c-2.2,2.5-5.8,3-8.6,1.4L9,23.3c-0.3,0.1-0.6-0.2-0.4-0.5l1.9-3.8c-1.5-2.6-1.1-6,1.2-8.3C14.4,7.9,19,8,21.7,11    C24.1,13.6,24.1,17.7,21.7,20.3z"/></g></g></svg>